<svg width="148" height="48" viewBox="0 0 148 48" fill="none" xmlns="http://www.w3.org/2000/svg">
<g clip-path="url(#clip0_19_4)">
<path opacity="0.2" d="M52.0021 17H51.0021V37H52.0021V17Z" fill="white"/>
<path d="M34 19.364C35.7564 22.5975 36.3823 26.3252 35.778 29.955C35.148 33.7017 33.3157 37.1416 30.558 39.755C27.7438 42.4194 24.144 44.1031 20.295 44.555C20.055 44.579 19.815 44.616 19.574 44.63L18.85 44.674C18.366 44.681 17.882 44.692 17.398 44.665C16.4288 44.626 15.4644 44.509 14.514 44.315C13.5635 44.1166 12.6297 43.8451 11.721 43.503C10.8167 43.1522 9.93846 42.7374 9.09299 42.262C8.25602 41.7723 7.45592 41.2222 6.69901 40.616C5.94577 40.0051 5.24131 39.3364 4.59201 38.616C3.94615 37.8934 3.36052 37.1192 2.841 36.301C2.31507 35.4895 1.85975 34.6343 1.48001 33.745C-0.0603741 30.1948 -0.409486 26.2412 0.484986 22.476C1.3672 18.7792 3.43 15.4705 6.36099 13.051C9.20514 10.7067 12.7497 9.37767 16.434 9.274L15.784 9.433L15.461 9.50999L15.141 9.604C14.929 9.668 14.716 9.72701 14.506 9.79401L13.883 10.017C13.675 10.086 13.472 10.171 13.27 10.256C13.068 10.341 12.864 10.419 12.67 10.512C12.277 10.706 11.878 10.877 11.502 11.097C9.98801 11.9146 8.60583 12.9556 7.40201 14.185C7.32501 14.258 7.25401 14.337 7.18301 14.416L6.96899 14.651C6.82899 14.81 6.67701 14.958 6.54901 15.127L6.14899 15.62L6.04901 15.743L5.957 15.872L5.77399 16.13L5.591 16.387C5.529 16.472 5.468 16.557 5.414 16.647L5.077 17.179C4.96 17.353 4.86499 17.54 4.76199 17.723C4.65899 17.906 4.55601 18.087 4.46201 18.273C4.08804 19.0167 3.76562 19.7851 3.49701 20.573C3.23804 21.3571 3.03749 22.1593 2.897 22.973C2.75375 23.7823 2.67814 24.6021 2.67099 25.424C2.65271 26.2418 2.7002 27.0598 2.81299 27.87C2.92824 28.6767 3.09865 29.4746 3.323 30.258C3.55505 31.0365 3.84485 31.7966 4.19 32.532C4.53257 33.2662 4.93178 33.9727 5.384 34.645C5.831 35.3184 6.3327 35.9539 6.884 36.545C7.43009 37.1395 8.02043 37.6917 8.64999 38.197C9.91903 39.2024 11.33 40.0142 12.837 40.606C13.592 40.8942 14.3667 41.1281 15.155 41.306C15.9445 41.4846 16.7471 41.599 17.555 41.648C17.955 41.68 18.364 41.678 18.77 41.682L19.378 41.661C19.578 41.661 19.778 41.632 19.985 41.619C20.7959 41.5498 21.6002 41.4184 22.391 41.226C23.183 41.0279 23.9605 40.7757 24.718 40.471C25.476 40.1616 26.2089 39.7938 26.91 39.371C27.266 39.171 27.603 38.932 27.945 38.702L28.44 38.333C28.607 38.212 28.76 38.073 28.921 37.945C29.5579 37.4167 30.1533 36.8403 30.702 36.221C30.846 36.071 30.97 35.904 31.102 35.745L31.302 35.504C31.367 35.423 31.427 35.338 31.489 35.255C31.611 35.086 31.742 34.923 31.86 34.755L32.211 34.236C32.329 34.063 32.428 33.879 32.538 33.7L32.699 33.43L32.78 33.295L32.852 33.155C33.043 32.782 33.246 32.413 33.41 32.026C33.7609 31.2566 34.0518 30.4612 34.28 29.647C34.7428 27.986 34.9519 26.2645 34.9 24.541C34.9 24.106 34.85 23.675 34.82 23.241C34.802 23.023 34.765 22.808 34.738 22.591C34.711 22.374 34.682 22.156 34.638 21.941L34.518 21.292C34.472 21.077 34.418 20.863 34.364 20.648L34.285 20.325C34.256 20.218 34.221 20.113 34.185 20.007L34 19.364Z" fill="#E0E1E2"/>
<path d="M19.134 50.999C18.979 48.061 16.581 43.799 14.376 41.316C12.171 38.833 9.00998 35.616 8.55998 32.773C8.16998 30.306 11.074 19.915 11.86 17.181C11.8785 17.1254 11.9129 17.0764 11.9589 17.0402C12.005 17.0039 12.0606 16.9819 12.119 16.9769C12.1774 16.9719 12.236 16.9841 12.2875 17.012C12.3391 17.04 12.3813 17.0823 12.409 17.134C13.0786 18.8543 13.1775 20.7443 12.691 22.525C11.9708 25.5987 11.755 28.769 12.052 31.912C12.318 33.595 14.142 36.67 14.916 35.483C16.016 33.79 13.967 27.683 15.447 25.393C15.4739 25.3509 15.5124 25.3174 15.5578 25.2965C15.6032 25.2756 15.6537 25.2682 15.7032 25.2751C15.7527 25.2821 15.7991 25.3031 15.8371 25.3357C15.875 25.3683 15.9027 25.4111 15.917 25.459C16.5815 28.1363 17.4597 30.7561 18.543 33.293C20.521 37.342 22.543 37.859 22.735 41.587C22.927 45.315 19.134 50.999 19.134 50.999Z" fill="url(#paint0_linear_19_4)"/>
<path d="M16.807 3C16.962 5.938 19.36 10.2 21.565 12.683C23.77 15.166 26.931 18.383 27.381 21.227C27.771 23.693 24.867 34.084 24.081 36.819C24.0625 36.8746 24.0281 36.9236 23.982 36.9598C23.936 36.9961 23.8804 37.0181 23.822 37.0231C23.7636 37.0281 23.705 37.0159 23.6534 36.988C23.6019 36.96 23.5597 36.9177 23.532 36.866C22.8624 35.1457 22.7635 33.2557 23.25 31.475C23.9702 28.4013 24.186 25.231 23.889 22.088C23.623 20.406 21.799 17.329 21.025 18.517C19.925 20.209 21.974 26.317 20.494 28.607C20.4671 28.6491 20.4286 28.6826 20.3832 28.7035C20.3378 28.7244 20.2873 28.7318 20.2378 28.7249C20.1883 28.7179 20.1418 28.6969 20.1039 28.6643C20.066 28.6317 20.0383 28.5889 20.024 28.541C19.3595 25.8637 18.4813 23.2439 17.398 20.707C15.42 16.658 13.398 16.142 13.206 12.413C13.014 8.684 16.807 3 16.807 3Z" fill="url(#paint1_linear_19_4)"/>
<path d="M28.0575 13.3839C29.1275 13.0425 29.7183 11.8984 29.3769 10.8284C29.0356 9.75836 27.8915 9.16764 26.8215 9.50897C25.7514 9.8503 25.1607 10.9944 25.502 12.0644C25.8434 13.1345 26.9875 13.7252 28.0575 13.3839Z" fill="#6A16F9"/>
<path d="M33.146 16.02C33.146 16.2071 33.0905 16.39 32.9866 16.5456C32.8826 16.7011 32.7349 16.8224 32.562 16.894C32.3892 16.9656 32.199 16.9843 32.0155 16.9478C31.832 16.9113 31.6634 16.8212 31.5311 16.6889C31.3988 16.5566 31.3087 16.3881 31.2722 16.2046C31.2357 16.0211 31.2544 15.8308 31.326 15.658C31.3976 15.4851 31.5188 15.3374 31.6744 15.2334C31.83 15.1295 32.0129 15.074 32.2 15.074C32.3242 15.074 32.4473 15.0985 32.562 15.146C32.6768 15.1936 32.7811 15.2632 32.8689 15.3511C32.9568 15.4389 33.0265 15.5432 33.074 15.658C33.1215 15.7728 33.146 15.8958 33.146 16.02V16.02Z" fill="#00A7FF"/>
<path d="M22.104 8.32001C22.2911 8.32001 22.474 8.37549 22.6296 8.47944C22.7851 8.58338 22.9064 8.73113 22.978 8.90399C23.0496 9.07685 23.0683 9.26706 23.0318 9.45056C22.9953 9.63407 22.9052 9.80263 22.7729 9.93493C22.6406 10.0672 22.4721 10.1573 22.2885 10.1938C22.105 10.2303 21.9148 10.2116 21.742 10.14C21.5691 10.0684 21.4214 9.94715 21.3174 9.79158C21.2135 9.63601 21.158 9.45311 21.158 9.26601C21.158 9.01511 21.2577 8.77449 21.4351 8.59708C21.6125 8.41967 21.8531 8.32001 22.104 8.32001Z" fill="#FF0076"/>
<path d="M75 19.25H70.625V24.55H75.225C76.1417 24.55 76.9333 24.375 77.6 24.025C78.2667 23.6583 78.6 22.9583 78.6 21.925C78.6333 20.775 78.275 20.05 77.525 19.75C76.7917 19.4333 75.95 19.275 75 19.275V19.25ZM66.85 16.05H75.05C75.0667 16.0667 75.0833 16.075 75.1 16.075C75.1333 16.075 75.1583 16.075 75.175 16.075C75.4917 16.075 75.8083 16.075 76.125 16.075C76.4417 16.075 76.7583 16.0917 77.075 16.125C77.6417 16.1583 78.2 16.2417 78.75 16.375C79.3167 16.4917 79.8417 16.6917 80.325 16.975C81.2083 17.4917 81.8333 18.2 82.2 19.1C82.5833 20 82.7833 20.9417 82.8 21.925C82.8167 22.825 82.6583 23.6917 82.325 24.525C82.0083 25.3583 81.475 26.05 80.725 26.6C80.0917 27.05 79.4 27.35 78.65 27.5C77.9167 27.6333 77.1667 27.7167 76.4 27.75C76.2 27.75 76 27.75 75.8 27.75C75.6 27.75 75.4 27.75 75.2 27.75L70.625 27.725V34H66.85V16.05ZM88.7047 34H85.0547V20.825H88.7047V34ZM88.7047 19.325H85.0547V16.05H88.7047V19.325ZM95.1203 27.425L90.2203 20.825H94.2703L97.0953 24.8L99.9953 20.825H103.995L99.1203 27.5L103.92 34H99.8703L97.0953 30.175L94.2953 34H90.2703L95.1203 27.425ZM105.789 20.825H112.914C113.68 20.8417 114.414 20.9333 115.114 21.1C115.83 21.25 116.472 21.6083 117.039 22.175C117.522 22.6417 117.855 23.1917 118.039 23.825C118.239 24.4583 118.339 25.1083 118.339 25.775V34H108.989C107.639 34 106.605 33.6333 105.889 32.9C105.172 32.15 104.847 31.1167 104.914 29.8C105.03 28.2167 105.589 27.1917 106.589 26.725C107.589 26.2583 108.78 26.025 110.164 26.025L114.739 26C114.789 24.9167 114.505 24.2417 113.889 23.975C113.289 23.7083 112.522 23.575 111.589 23.575L105.789 23.55V20.825ZM110.414 31.35H114.764V28.625H110.664C110.63 28.6417 110.597 28.65 110.564 28.65C110.53 28.65 110.497 28.65 110.464 28.65C109.997 28.6667 109.564 28.7583 109.164 28.925C108.764 29.075 108.555 29.4417 108.539 30.025C108.505 30.675 108.68 31.0583 109.064 31.175C109.464 31.2917 109.914 31.3583 110.414 31.375V31.35ZM121.183 31.25H128.508C128.541 31.2667 128.574 31.275 128.608 31.275C128.641 31.275 128.674 31.275 128.708 31.275C129.124 31.2583 129.508 31.1667 129.858 31C130.208 30.8333 130.383 30.4917 130.383 29.975C130.383 29.4917 130.216 29.1667 129.883 29C129.549 28.8333 129.191 28.7333 128.808 28.7C128.758 28.7 128.708 28.7 128.658 28.7C128.608 28.7 128.558 28.7 128.508 28.7L125.508 28.675C124.108 28.6917 122.999 28.5 122.183 28.1C121.383 27.7 120.974 26.6833 120.958 25.05C120.941 23.5167 121.358 22.4333 122.208 21.8C123.058 21.1667 124.191 20.85 125.608 20.85L133.083 20.825V23.575H126.933C126.883 23.5917 126.833 23.6 126.783 23.6C126.749 23.6 126.708 23.6 126.658 23.6C126.541 23.6 126.424 23.6 126.308 23.6C126.208 23.6 126.091 23.6 125.958 23.6C125.658 23.6167 125.366 23.6833 125.083 23.8C124.816 23.9167 124.641 24.1333 124.558 24.45C124.424 25.0333 124.541 25.4333 124.908 25.65C125.274 25.8667 125.699 25.975 126.183 25.975L129.333 25.95C130.566 25.9667 131.599 26.2583 132.433 26.825C133.266 27.375 133.708 28.3333 133.758 29.7C133.758 29.7167 133.758 29.7333 133.758 29.75C133.758 29.75 133.758 29.7583 133.758 29.775C133.774 30.8417 133.466 31.8167 132.833 32.7C132.216 33.5667 131.324 34 130.158 34H121.183V31.25Z" fill="white"/>
</g>
<defs>
<linearGradient id="paint0_linear_19_4" x1="8.52414" y1="33.9874" x2="22.742" y2="33.9874" gradientUnits="userSpaceOnUse">
<stop stop-color="#F37335"/>
<stop offset="1" stop-color="#FAAF31"/>
</linearGradient>
<linearGradient id="paint1_linear_19_4" x1="13.1989" y1="20.0121" x2="27.4168" y2="20.0121" gradientUnits="userSpaceOnUse">
<stop stop-color="#FF0076"/>
<stop offset="1" stop-color="#6A16F9"/>
</linearGradient>
<clipPath id="clip0_19_4">
<rect width="148" height="47.999" fill="white"/>
</clipPath>
</defs>
</svg>
