<svg width="148" height="48" viewBox="0 0 148 48" fill="none" xmlns="http://www.w3.org/2000/svg">
<g clip-path="url(#clip0_19_22)">
<path d="M52 14H51V34H52V14Z" fill="#E0E1E2"/>
<path d="M34.003 16.364C35.7594 19.5975 36.3852 23.3252 35.781 26.955C35.1509 30.7017 33.3187 34.1416 30.561 36.755C27.7468 39.4194 24.147 41.1031 20.298 41.555C20.058 41.579 19.818 41.616 19.577 41.63L18.853 41.674C18.369 41.681 17.885 41.692 17.401 41.665C16.4318 41.626 15.4674 41.509 14.517 41.315C13.5665 41.1166 12.6327 40.8451 11.724 40.503C10.8197 40.1522 9.94145 39.7374 9.09598 39.262C8.25901 38.7723 7.45891 38.2222 6.702 37.616C5.94876 37.0051 5.2443 36.3364 4.595 35.616C3.94914 34.8934 3.36351 34.1192 2.84399 33.301C2.31806 32.4895 1.86274 31.6343 1.483 30.745C-0.0573834 27.1948 -0.406495 23.2412 0.487977 19.476C1.37019 15.7792 3.43299 12.4705 6.36398 10.051C9.20813 7.70674 12.7527 6.37767 16.437 6.274L15.787 6.433L15.464 6.50999L15.144 6.604C14.932 6.668 14.719 6.72701 14.509 6.79401L13.886 7.017C13.678 7.086 13.475 7.171 13.273 7.256C13.071 7.341 12.867 7.41899 12.673 7.51199C12.28 7.70599 11.881 7.877 11.505 8.097C9.99101 8.91458 8.60882 9.95559 7.405 11.185C7.328 11.258 7.25701 11.337 7.18601 11.416L6.97199 11.651C6.83199 11.81 6.68 11.958 6.552 12.127L6.15198 12.62L6.052 12.743L5.95999 12.872L5.77698 13.13L5.59399 13.387C5.53199 13.472 5.47099 13.557 5.41699 13.647L5.07999 14.179C4.96299 14.353 4.86798 14.54 4.76498 14.723C4.66198 14.906 4.559 15.087 4.465 15.273C4.09104 16.0167 3.76861 16.7851 3.5 17.573C3.24103 18.3571 3.04048 19.1593 2.89999 19.973C2.75674 20.7823 2.68113 21.6021 2.67398 22.424C2.6557 23.2418 2.70319 24.0598 2.81598 24.87C2.93123 25.6767 3.10164 26.4746 3.32599 27.258C3.55804 28.0365 3.84784 28.7966 4.19299 29.532C4.53556 30.2662 4.93477 30.9727 5.38699 31.645C5.834 32.3184 6.33569 32.9539 6.88699 33.545C7.43308 34.1395 8.02342 34.6917 8.65298 35.197C9.92203 36.2024 11.333 37.0142 12.84 37.606C13.595 37.8942 14.3697 38.1281 15.158 38.306C15.9474 38.4846 16.7501 38.599 17.558 38.648C17.958 38.68 18.367 38.678 18.773 38.682L19.381 38.661C19.581 38.661 19.781 38.632 19.988 38.619C20.7989 38.5498 21.6032 38.4184 22.394 38.226C23.186 38.0279 23.9635 37.7757 24.721 37.471C25.479 37.1616 26.2119 36.7938 26.913 36.371C27.269 36.171 27.606 35.932 27.948 35.702L28.443 35.333C28.61 35.212 28.763 35.073 28.924 34.945C29.5608 34.4167 30.1563 33.8403 30.705 33.221C30.849 33.071 30.973 32.904 31.105 32.745L31.305 32.504C31.37 32.423 31.43 32.338 31.492 32.255C31.614 32.086 31.745 31.923 31.863 31.755L32.214 31.236C32.332 31.063 32.431 30.879 32.541 30.7L32.702 30.43L32.783 30.295L32.855 30.155C33.046 29.782 33.249 29.413 33.413 29.026C33.7639 28.2566 34.0548 27.4612 34.283 26.647C34.7458 24.986 34.9548 23.2645 34.903 21.541C34.903 21.106 34.853 20.675 34.823 20.241C34.805 20.023 34.768 19.808 34.741 19.591C34.714 19.374 34.685 19.156 34.641 18.941L34.521 18.292C34.475 18.077 34.421 17.863 34.367 17.648L34.288 17.325C34.259 17.218 34.224 17.113 34.188 17.007L34.003 16.364Z" fill="#E0E1E2"/>
<path d="M19.137 47.999C18.982 45.061 16.584 40.799 14.379 38.316C12.174 35.833 9.01298 32.616 8.56298 29.773C8.17298 27.306 11.077 16.915 11.863 14.181C11.8815 14.1254 11.9159 14.0764 11.9619 14.0402C12.008 14.0039 12.0636 13.9819 12.122 13.9769C12.1804 13.9719 12.239 13.9841 12.2905 14.012C12.342 14.04 12.3843 14.0823 12.412 14.134C13.0816 15.8543 13.1804 17.7443 12.694 19.525C11.9738 22.5987 11.758 25.769 12.055 28.912C12.321 30.595 14.145 33.67 14.919 32.483C16.019 30.79 13.97 24.683 15.45 22.393C15.4769 22.3509 15.5154 22.3174 15.5608 22.2965C15.6062 22.2756 15.6567 22.2682 15.7062 22.2751C15.7557 22.2821 15.8021 22.3031 15.84 22.3357C15.8779 22.3683 15.9057 22.4111 15.92 22.459C16.5845 25.1363 17.4626 27.7561 18.546 30.293C20.524 34.342 22.546 34.859 22.738 38.587C22.93 42.315 19.137 47.999 19.137 47.999Z" fill="url(#paint0_linear_19_22)"/>
<path d="M16.81 0C16.965 2.938 19.363 7.2 21.568 9.683C23.773 12.166 26.934 15.383 27.384 18.227C27.774 20.693 24.87 31.084 24.084 33.819C24.0655 33.8746 24.0311 33.9236 23.985 33.9598C23.939 33.9961 23.8833 34.0181 23.825 34.0231C23.7666 34.0281 23.708 34.0159 23.6564 33.988C23.6049 33.96 23.5627 33.9177 23.535 33.866C22.8653 32.1457 22.7665 30.2557 23.253 28.475C23.9732 25.4013 24.189 22.231 23.892 19.088C23.626 17.406 21.802 14.329 21.028 15.517C19.928 17.209 21.977 23.317 20.497 25.607C20.47 25.6491 20.4316 25.6826 20.3862 25.7035C20.3408 25.7244 20.2903 25.7318 20.2408 25.7249C20.1913 25.7179 20.1448 25.6969 20.1069 25.6643C20.069 25.6317 20.0413 25.5889 20.027 25.541C19.3625 22.8637 18.4843 20.2439 17.401 17.707C15.423 13.658 13.401 13.142 13.209 9.413C13.017 5.684 16.81 0 16.81 0Z" fill="url(#paint1_linear_19_22)"/>
<path d="M28.0605 10.3839C29.1305 10.0425 29.7213 8.89841 29.3799 7.82838C29.0386 6.75836 27.8945 6.16764 26.8244 6.50897C25.7544 6.8503 25.1637 7.99442 25.505 9.06445C25.8464 10.1345 26.9905 10.7252 28.0605 10.3839Z" fill="#6A16F9"/>
<path d="M33.149 13.02C33.149 13.2071 33.0935 13.39 32.9896 13.5456C32.8856 13.7011 32.7379 13.8224 32.565 13.894C32.3922 13.9656 32.202 13.9843 32.0185 13.9478C31.8349 13.9113 31.6664 13.8212 31.5341 13.6889C31.4018 13.5566 31.3117 13.3881 31.2752 13.2046C31.2387 13.0211 31.2574 12.8308 31.329 12.658C31.4006 12.4851 31.5218 12.3374 31.6774 12.2334C31.833 12.1295 32.0159 12.074 32.203 12.074C32.3272 12.074 32.4502 12.0985 32.565 12.146C32.6798 12.1936 32.7841 12.2632 32.8719 12.3511C32.9598 12.4389 33.0294 12.5432 33.077 12.658C33.1245 12.7728 33.149 12.8958 33.149 13.02V13.02Z" fill="#00A7FF"/>
<path d="M22.107 5.32C22.2941 5.32 22.477 5.37548 22.6325 5.47943C22.7881 5.58338 22.9094 5.73112 22.981 5.90398C23.0526 6.07684 23.0713 6.26705 23.0348 6.45056C22.9983 6.63406 22.9082 6.80262 22.7759 6.93492C22.6436 7.06722 22.475 7.15732 22.2915 7.19382C22.108 7.23032 21.9178 7.21159 21.745 7.13999C21.5721 7.06839 21.4244 6.94714 21.3204 6.79157C21.2165 6.636 21.161 6.4531 21.161 6.266C21.161 6.0151 21.2606 5.77449 21.4381 5.59708C21.6155 5.41967 21.8561 5.32 22.107 5.32Z" fill="#FF0076"/>
<path d="M75 16.25H70.625V21.55H75.225C76.1417 21.55 76.9333 21.375 77.6 21.025C78.2667 20.6583 78.6 19.9583 78.6 18.925C78.6333 17.775 78.275 17.05 77.525 16.75C76.7917 16.4333 75.95 16.275 75 16.275V16.25ZM66.85 13.05H75.05C75.0667 13.0667 75.0833 13.075 75.1 13.075C75.1333 13.075 75.1583 13.075 75.175 13.075C75.4917 13.075 75.8083 13.075 76.125 13.075C76.4417 13.075 76.7583 13.0917 77.075 13.125C77.6417 13.1583 78.2 13.2417 78.75 13.375C79.3167 13.4917 79.8417 13.6917 80.325 13.975C81.2083 14.4917 81.8333 15.2 82.2 16.1C82.5833 17 82.7833 17.9417 82.8 18.925C82.8167 19.825 82.6583 20.6917 82.325 21.525C82.0083 22.3583 81.475 23.05 80.725 23.6C80.0917 24.05 79.4 24.35 78.65 24.5C77.9167 24.6333 77.1667 24.7167 76.4 24.75C76.2 24.75 76 24.75 75.8 24.75C75.6 24.75 75.4 24.75 75.2 24.75L70.625 24.725V31H66.85V13.05ZM88.7047 31H85.0547V17.825H88.7047V31ZM88.7047 16.325H85.0547V13.05H88.7047V16.325ZM95.1203 24.425L90.2203 17.825H94.2703L97.0953 21.8L99.9953 17.825H103.995L99.1203 24.5L103.92 31H99.8703L97.0953 27.175L94.2953 31H90.2703L95.1203 24.425ZM105.789 17.825H112.914C113.68 17.8417 114.414 17.9333 115.114 18.1C115.83 18.25 116.472 18.6083 117.039 19.175C117.522 19.6417 117.855 20.1917 118.039 20.825C118.239 21.4583 118.339 22.1083 118.339 22.775V31H108.989C107.639 31 106.605 30.6333 105.889 29.9C105.172 29.15 104.847 28.1167 104.914 26.8C105.03 25.2167 105.589 24.1917 106.589 23.725C107.589 23.2583 108.78 23.025 110.164 23.025L114.739 23C114.789 21.9167 114.505 21.2417 113.889 20.975C113.289 20.7083 112.522 20.575 111.589 20.575L105.789 20.55V17.825ZM110.414 28.35H114.764V25.625H110.664C110.63 25.6417 110.597 25.65 110.564 25.65C110.53 25.65 110.497 25.65 110.464 25.65C109.997 25.6667 109.564 25.7583 109.164 25.925C108.764 26.075 108.555 26.4417 108.539 27.025C108.505 27.675 108.68 28.0583 109.064 28.175C109.464 28.2917 109.914 28.3583 110.414 28.375V28.35ZM121.183 28.25H128.508C128.541 28.2667 128.574 28.275 128.608 28.275C128.641 28.275 128.674 28.275 128.708 28.275C129.124 28.2583 129.508 28.1667 129.858 28C130.208 27.8333 130.383 27.4917 130.383 26.975C130.383 26.4917 130.216 26.1667 129.883 26C129.549 25.8333 129.191 25.7333 128.808 25.7C128.758 25.7 128.708 25.7 128.658 25.7C128.608 25.7 128.558 25.7 128.508 25.7L125.508 25.675C124.108 25.6917 122.999 25.5 122.183 25.1C121.383 24.7 120.974 23.6833 120.958 22.05C120.941 20.5167 121.358 19.4333 122.208 18.8C123.058 18.1667 124.191 17.85 125.608 17.85L133.083 17.825V20.575H126.933C126.883 20.5917 126.833 20.6 126.783 20.6C126.749 20.6 126.708 20.6 126.658 20.6C126.541 20.6 126.424 20.6 126.308 20.6C126.208 20.6 126.091 20.6 125.958 20.6C125.658 20.6167 125.366 20.6833 125.083 20.8C124.816 20.9167 124.641 21.1333 124.558 21.45C124.424 22.0333 124.541 22.4333 124.908 22.65C125.274 22.8667 125.699 22.975 126.183 22.975L129.333 22.95C130.566 22.9667 131.599 23.2583 132.433 23.825C133.266 24.375 133.708 25.3333 133.758 26.7C133.758 26.7167 133.758 26.7333 133.758 26.75C133.758 26.75 133.758 26.7583 133.758 26.775C133.774 27.8417 133.466 28.8167 132.833 29.7C132.216 30.5667 131.324 31 130.158 31H121.183V28.25Z" fill="black"/>
</g>
<defs>
<linearGradient id="paint0_linear_19_22" x1="8.52713" y1="30.9874" x2="22.745" y2="30.9874" gradientUnits="userSpaceOnUse">
<stop stop-color="#F37335"/>
<stop offset="1" stop-color="#FAAF31"/>
</linearGradient>
<linearGradient id="paint1_linear_19_22" x1="13.2019" y1="17.0121" x2="27.4198" y2="17.0121" gradientUnits="userSpaceOnUse">
<stop stop-color="#FF0076"/>
<stop offset="1" stop-color="#6A16F9"/>
</linearGradient>
<clipPath id="clip0_19_22">
<rect width="148" height="47.999" fill="white"/>
</clipPath>
</defs>
</svg>
